<svg width="24" height="24" viewBox="0 0 24 24" fill="none" xmlns="http://www.w3.org/2000/svg">
<g clip-path="url(#clip0_1177_63)">
<path d="M17.8826 19.297C16.1239 20.4126 14.0834 21.0033 12.0006 21C6.60864 21 2.12264 17.12 1.18164 12C1.61167 9.67072 2.78327 7.5429 4.52164 5.93401L1.39264 2.80801L2.80764 1.39301L22.6066 21.193L21.1916 22.607L17.8826 19.297ZM5.93564 7.35001C4.57665 8.5856 3.62996 10.2088 3.22364 12C3.53593 13.3665 4.1629 14.6411 5.05464 15.7226C5.94638 16.804 7.07827 17.6624 8.36019 18.2293C9.64212 18.7962 11.0387 19.0561 12.4387 18.9881C13.8388 18.9202 15.2036 18.5264 16.4246 17.838L14.3966 15.81C13.5333 16.3538 12.5108 16.5881 11.4969 16.4744C10.4829 16.3608 9.53768 15.9059 8.81621 15.1844C8.09474 14.463 7.63987 13.5177 7.5262 12.5038C7.41254 11.4898 7.64682 10.4673 8.19064 9.60401L5.93564 7.35001ZM12.9146 14.328L9.67264 11.086C9.49471 11.5389 9.45283 12.034 9.55215 12.5104C9.65146 12.9867 9.88766 13.4238 10.2318 13.7679C10.5759 14.112 11.0129 14.3482 11.4893 14.4475C11.9657 14.5468 12.4607 14.5049 12.9136 14.327L12.9146 14.328ZM20.8076 16.592L19.3766 15.162C20.0451 14.2093 20.521 13.1352 20.7776 12C20.5059 10.8097 19.9949 9.68715 19.2758 8.7005C18.5567 7.71385 17.6444 6.88373 16.5945 6.26061C15.5446 5.63749 14.3789 5.23437 13.1684 5.07577C11.9578 4.91717 10.7276 5.00638 9.55264 5.33801L7.97464 3.76001C9.22164 3.27001 10.5806 3.00001 12.0006 3.00001C17.3926 3.00001 21.8786 6.88001 22.8196 12C22.5132 13.6657 21.8245 15.2376 20.8076 16.592ZM11.7236 7.50801C12.3602 7.46867 12.9978 7.56507 13.5942 7.79082C14.1906 8.01657 14.7323 8.36652 15.1832 8.81746C15.6341 9.2684 15.9841 9.81003 16.2098 10.4065C16.4356 11.0029 16.532 11.6405 16.4926 12.277L11.7236 7.50801Z" fill="#003366"/>
</g>
<defs>
<clipPath id="clip0_1177_63">
<rect width="24" height="24" fill="white"/>
</clipPath>
</defs>
</svg>
