<svg width="20" height="20" viewBox="0 0 20 20" fill="none" xmlns="http://www.w3.org/2000/svg">
<path d="M10.0001 1.66669C14.6001 1.66669 18.3334 5.40002 18.3334 10C18.3334 14.6 14.6001 18.3334 10.0001 18.3334C5.40008 18.3334 1.66675 14.6 1.66675 10C1.66675 5.40002 5.40008 1.66669 10.0001 1.66669ZM10.0001 16.6667C13.6834 16.6667 16.6667 13.6834 16.6667 10C16.6667 6.31669 13.6834 3.33335 10.0001 3.33335C6.31675 3.33335 3.33341 6.31669 3.33341 10C3.33341 13.6834 6.31675 16.6667 10.0001 16.6667ZM10.8334 10V13.3334H9.16675V10H6.66675L10.0001 6.66669L13.3334 10H10.8334Z" fill="#4FC475"/>
</svg>
