<svg width="36" height="36" viewBox="0 0 36 36" fill="none" xmlns="http://www.w3.org/2000/svg">
<circle cx="18" cy="18" r="18" fill="#10B8C5"/>
<path d="M16 25.748V22.4C16 21.117 16.995 20.108 18.467 19.532C17.5177 19.1789 16.5128 18.9988 15.5 19C13.61 19 11.864 19.617 10.453 20.66C10.8905 21.8973 11.6251 23.0083 12.5923 23.8955C13.5594 24.7826 14.7296 25.4187 16 25.748ZM24.88 22.086C24.485 21.553 23.17 21 21.5 21C19.494 21 18 21.797 18 22.4V26C19.3878 26.0008 20.752 25.6403 21.9583 24.954C23.1646 24.2678 24.1715 23.2794 24.88 22.086ZM15.55 17.5C16.1467 17.5 16.719 17.2629 17.141 16.841C17.5629 16.419 17.8 15.8467 17.8 15.25C17.8 14.6533 17.5629 14.081 17.141 13.659C16.719 13.2371 16.1467 13 15.55 13C14.9533 13 14.381 13.2371 13.959 13.659C13.5371 14.081 13.3 14.6533 13.3 15.25C13.3 15.8467 13.5371 16.419 13.959 16.841C14.381 17.2629 14.9533 17.5 15.55 17.5ZM21.5 18.5C22.0304 18.5 22.5391 18.2893 22.9142 17.9142C23.2893 17.5391 23.5 17.0304 23.5 16.5C23.5 15.9696 23.2893 15.4609 22.9142 15.0858C22.5391 14.7107 22.0304 14.5 21.5 14.5C20.9696 14.5 20.4609 14.7107 20.0858 15.0858C19.7107 15.4609 19.5 15.9696 19.5 16.5C19.5 17.0304 19.7107 17.5391 20.0858 17.9142C20.4609 18.2893 20.9696 18.5 21.5 18.5ZM18 28C12.477 28 8 23.523 8 18C8 12.477 12.477 8 18 8C23.523 8 28 12.477 28 18C28 23.523 23.523 28 18 28Z" fill="white"/>
</svg>
