<svg width="36" height="36" viewBox="0 0 36 36" fill="none" xmlns="http://www.w3.org/2000/svg">
<circle cx="18" cy="18" r="18" fill="#00B54A"/>
<path d="M28 13H8V10C8 9.73478 8.10536 9.48043 8.29289 9.29289C8.48043 9.10536 8.73478 9 9 9H27C27.2652 9 27.5196 9.10536 27.7071 9.29289C27.8946 9.48043 28 9.73478 28 10V13ZM28 15V26C28 26.2652 27.8946 26.5196 27.7071 26.7071C27.5196 26.8946 27.2652 27 27 27H9C8.73478 27 8.48043 26.8946 8.29289 26.7071C8.10536 26.5196 8 26.2652 8 26V15H28ZM17 20V17.5L12.5 22H23V20H17Z" fill="white"/>
</svg>
