<svg width="36" height="36" viewBox="0 0 36 36" fill="none" xmlns="http://www.w3.org/2000/svg">
<circle cx="18" cy="18" r="18" fill="#7365FF"/>
<path d="M19 8V9.278L24 10.946L27.632 9.736L28.265 11.632L25.233 12.643L28.329 21.155C27.237 22.292 25.7 23 24 23C22.299 23 20.763 22.292 19.671 21.155L22.765 12.643L19 11.387V25H23V27H13V25H17V11.387L13.232 12.643L16.328 21.155C15.237 22.292 13.7 23 12 23C10.299 23 8.76302 22.292 7.67102 21.155L10.765 12.643L7.73502 11.633L8.36802 9.735L12 10.945L17 9.278V8H19ZM24 15.103L22.582 19H25.417L24 15.103ZM12 15.103L10.582 19H13.417L12 15.103Z" fill="white"/>
</svg>
