<svg width="18" height="18" viewBox="0 0 18 18" fill="none" xmlns="http://www.w3.org/2000/svg">
<path d="M9.00016 17.3334C4.40016 17.3334 0.666828 13.6 0.666829 9.00004C0.666829 4.40004 4.40016 0.666705 9.00016 0.666705C13.6002 0.666706 17.3335 4.40004 17.3335 9.00004C17.3335 13.6 13.6002 17.3334 9.00016 17.3334ZM9.00016 2.33337C5.31683 2.33337 2.3335 5.31671 2.3335 9.00004C2.3335 12.6834 5.31683 15.6667 9.00016 15.6667C12.6835 15.6667 15.6668 12.6834 15.6668 9.00004C15.6668 5.31671 12.6835 2.33337 9.00016 2.33337ZM8.16683 9.00004L8.16683 5.66671L9.8335 5.66671L9.8335 9.00004L12.3335 9.00004L9.00016 12.3334L5.66683 9.00004L8.16683 9.00004Z" fill="#F83F2A"/>
</svg>
