<svg width="24" height="24" viewBox="0 0 24 24" fill="none" xmlns="http://www.w3.org/2000/svg">
<g clip-path="url(#clip0_23_371)">
<path fill-rule="evenodd" clip-rule="evenodd" d="M6 7V8H4C3.44772 8 3 8.44772 3 9V21C3 21.5523 3.44772 22 4 22H15V20H5V10H19V15H21V9C21 8.44772 20.5523 8 20 8H18V7C18 3.68629 15.3137 1 12 1C8.68629 1 6 3.68629 6 7ZM16 7V8H8V7C8 4.79086 9.79086 3 12 3C14.2091 3 16 4.79086 16 7Z" fill="black"/>
<path d="M21 22H16V21.4286C16 20.6396 16.6996 20 17.5625 20H19.4375C20.3004 20 21 20.6396 21 21.4286V22ZM18.5 19.4286C17.4645 19.4286 16.625 18.6611 16.625 17.7143C16.625 16.7675 17.4645 16 18.5 16C19.5355 16 20.375 16.7675 20.375 17.7143C20.375 18.6611 19.5355 19.4286 18.5 19.4286Z" fill="black"/>
</g>
<defs>
<clipPath id="clip0_23_371">
<rect width="24" height="24" fill="white"/>
</clipPath>
</defs>
</svg>
