<svg xmlns="http://www.w3.org/2000/svg" width="241" height="97" viewBox="0 0 241 97" fill="none">
<g filter="url(#filter0_b_2002_6411)">
<path d="M26.9964 60.7047C32.5713 63.2623 50.1604 76.7701 57.9936 82.8921C54.9764 83.7386 51.7929 84.183 48.5037 84.183C40.2684 84.183 32.6861 81.3683 26.673 76.64C26.2285 76.2893 25.7932 75.9296 25.3639 75.5638C25.1916 75.4096 25.0223 75.2735 24.859 75.1194C24.732 74.9984 24.593 74.8805 24.466 74.7505C24.0639 74.3817 23.68 74.0068 23.296 73.6138C22.9362 73.254 22.5856 72.8792 22.253 72.4922C17.1407 66.7904 13.8484 59.4198 13.2922 51.2964C15.9072 50.5013 18.6463 50.0055 21.476 49.8422C22.1593 49.809 22.8455 49.7818 23.5379 49.7818C23.9823 49.7818 24.4267 49.7908 24.862 49.806C28.2662 49.9329 31.5494 50.5406 34.6452 51.5594C36.4742 52.1671 38.2459 52.9199 39.9298 53.8087C40.4437 54.0748 40.9396 54.3468 41.4354 54.6371C44.7881 56.6052 47.7872 59.1175 50.3116 62.0319C50.9192 62.7423 51.4997 63.4588 52.0469 64.2116C55.8078 69.3178 58.2294 75.4731 58.7857 82.1604C42.1881 62.7756 27.0025 60.6986 27.0025 60.6986L26.9964 60.7047Z" fill="white"/>
<path d="M20.9776 43.228L13.7914 42.4933C13.4135 44.5219 13.22 46.6079 13.2109 48.7423C16.4851 47.8112 19.3995 47.4937 21.0471 47.3879C20.8869 46.0275 20.8657 44.6005 20.9776 43.228Z" fill="white"/>
<path d="M27.4471 29.4731L22.4074 25.0985C19.1484 28.6749 16.63 32.9226 15.0791 37.5118L21.5398 39.7127C22.5102 35.8369 24.5721 32.2454 27.4471 29.4731Z" fill="white"/>
<path d="M34.4555 24.9265V24.9204C35.8795 24.3551 37.3699 23.9469 38.8785 23.69C39.4892 23.5962 40.109 23.5116 40.7287 23.4662L39.6978 14.6536C34.7246 15.9294 30.0568 18.3268 26.0994 21.5858L30.1958 27.218C31.517 26.2899 32.953 25.525 34.4555 24.9234V24.9265Z" fill="white"/>
<path d="M52.2079 13.7107C52.2291 13.7167 52.2533 13.7167 52.2715 13.7198V13.7137C52.2503 13.7076 52.2261 13.7076 52.2079 13.7076V13.7107Z" fill="white"/>
<path d="M62.2959 16.3086C59.1276 14.9542 55.7264 14.0835 52.2739 13.7208C49.9823 13.4789 47.6665 13.4577 45.381 13.6663L44.2896 23.4797C48.0656 23.782 51.7479 25.1274 54.8316 27.3222L62.2959 16.3086Z" fill="white"/>
<path d="M83.7518 45.8027C78.0016 42.7008 71.5017 41.0018 65.3283 41.0018C64.8838 41.0018 64.0797 41.0199 63.6353 41.0381C63.6232 41.0078 63.6171 40.9746 63.605 40.9444C63.076 38.0723 61.9332 35.3333 60.3097 32.9026C60.1978 32.7393 60.0799 32.5731 59.9651 32.4098C59.9651 32.4038 59.959 32.4038 59.959 32.3977C59.4723 31.7296 58.9553 31.0917 58.399 30.481C58.2751 30.345 58.1481 30.1998 58.0181 30.0698L57.5495 29.5831L68.3243 19.5823C77.0584 25.4564 82.8781 35.2849 83.7518 45.8027Z" fill="white"/>
<path d="M63.9776 45.4024C64.549 49.1663 65.072 55.4727 64.6034 59.8413C64.2194 62.6287 62.6897 63.7745 61.4834 63.3724C60.2741 62.9703 57.2963 57.2111 57.2963 57.2111V57.205C62.333 51.4851 61.8251 41.3241 55.7514 36.3871C48.9673 30.9181 37.2493 33.7781 28.8658 33.1795C28.9021 39.0899 33.6909 43.7275 39.5983 43.6429C42.2013 43.8273 44.9645 43.2105 47.4617 44.0994C51.1621 45.6775 49.717 51.6665 45.8957 51.5365C44.2057 51.5456 42.5732 51.5456 40.9406 51.5456C40.986 51.5667 41.0343 51.5909 41.0797 51.6151C41.5997 51.8872 42.1408 52.1865 42.6759 52.4979C46.2675 54.605 49.4601 57.2685 52.181 60.4157C52.8944 61.244 53.5747 62.0966 54.2095 62.9733C58.2365 68.5119 60.646 74.9543 61.2416 81.817C73.8484 76.9678 82.9211 65.0412 83.813 51.0014L82.6339 50.1791C77.0561 46.9472 70.4564 45.1061 63.9776 45.3993V45.4024Z" fill="white"/>
</g>
<path d="M139.088 64.5233H130.94L123.913 54.2271H120.152V64.5233H112.988V33.1875H126.104C129.954 33.1875 132.968 34.1422 135.146 36.0517C137.324 37.9611 138.415 40.5883 138.415 43.9309C138.415 48.9147 136.056 52.1075 131.34 53.5116L139.086 64.5233H139.088ZM125.746 39.4547H120.15V48.4071H125.746C129.357 48.4071 131.164 46.9158 131.164 43.9309C131.164 40.946 129.357 39.4547 125.746 39.4547Z" fill="white"/>
<path d="M167.336 61.5697C164.977 63.8973 161.71 65.0622 157.531 65.0622C153.352 65.0622 150.092 63.9062 147.749 61.5921C145.406 59.2802 144.234 56.0046 144.234 51.7654V33.1875H151.396V51.4077C151.396 56.0628 153.44 58.3903 157.529 58.3903C161.618 58.3903 163.617 56.0628 163.617 51.4077V33.1875H170.824V51.7654C170.824 56.0046 169.661 59.2712 167.331 61.5697H167.336Z" fill="white"/>
<path d="M193.121 46.0324H208.298C208.477 47.0475 208.566 48.1073 208.566 49.2118C208.566 54.0458 207.111 57.896 204.202 60.7624C201.291 63.6288 197.51 65.0597 192.853 65.0597C188.195 65.0597 184.086 63.5527 180.967 60.5388C177.847 57.5248 176.289 53.6456 176.289 48.8988C176.289 44.152 177.923 40.1096 181.19 37.1247C184.459 34.1398 188.658 32.6484 193.792 32.6484C197.403 32.6484 200.64 33.3349 203.506 34.7077V41.422C200.282 39.8413 197.121 39.0498 194.015 39.0498C190.91 39.0498 188.3 39.915 186.449 41.6456C184.598 43.3762 183.674 45.7932 183.674 48.8988C183.674 52.0044 184.531 54.2336 186.248 55.9508C187.963 57.6679 190.239 58.5243 193.074 58.5243C195.401 58.5243 197.311 57.9362 198.804 56.7557C200.296 55.5774 201.192 53.9295 201.49 51.8099H193.119V46.0346L193.121 46.0324Z" fill="white"/>
<path d="M240.435 64.5233H232.288L225.26 54.2271H221.5V64.5233H214.336V33.1875H227.452C231.302 33.1875 234.316 34.1422 236.494 36.0517C238.671 37.9611 239.762 40.5883 239.762 43.9309C239.762 48.9147 237.404 52.1075 232.688 53.5116L240.433 64.5233H240.435ZM227.094 39.4547H221.497V48.4071H227.094C230.705 48.4071 232.511 46.9158 232.511 43.9309C232.511 40.946 230.705 39.4547 227.094 39.4547Z" fill="white"/>
<defs>
<filter id="filter0_b_2002_6411" x="-382.801" y="-382.489" width="862.63" height="862.684" filterUnits="userSpaceOnUse" color-interpolation-filters="sRGB">
<feFlood flood-opacity="0" result="BackgroundImageFix"/>
<feGaussianBlur in="BackgroundImageFix" stdDeviation="191.619"/>
<feComposite in2="SourceAlpha" operator="in" result="effect1_backgroundBlur_2002_6411"/>
<feBlend mode="normal" in="SourceGraphic" in2="effect1_backgroundBlur_2002_6411" result="shape"/>
</filter>
</defs>
</svg>